<svg width="433" height="86" viewBox="0 0 433 86" fill="none" xmlns="http://www.w3.org/2000/svg">
<path d="M59.7 17C59.7 23.8 55.8333 28.6 48.1 31.4C50.9 32.2667 53.2 33.2333 55 34.3C60.4 37.4333 63.1 42.1333 63.1 48.4C63.1 54.5333 60.7333 59.4333 56 63.1C51.2667 66.7 44.9333 68.5 37 68.5C34.1333 68.5 30.5 68.3333 26.1 68C21.7 67.6667 18.4667 67.5 16.4 67.5C14.6 67.5 12.9 67.6 11.3 67.8L6.6 68.4C6.46667 68.4 6.23333 68.4333 5.9 68.5C5.56667 68.5 5.33333 68.5 5.2 68.5C2.33333 68.4333 0.9 67.2333 0.9 64.9C0.9 62.7667 1.93333 61.7 4 61.7C4.53333 61.7 5.43333 61.8 6.7 62C7.56667 62.1333 8.26667 62.2 8.8 62.2C12.2 62.2 13.9 59.7333 13.9 54.8V14.6C13.9 9.6 12.2 7.1 8.8 7.1C8.2 7.1 7.5 7.16666 6.7 7.29999C5.5 7.5 4.6 7.6 4 7.6C1.93333 7.6 0.9 6.53333 0.9 4.4C0.9 2.06667 2.43333 0.9 5.5 0.9H6.8L11.7 1.6C13.1 1.8 15 1.9 17.4 1.9C19.9333 1.9 23.5333 1.7 28.2 1.29999C31.3333 1.03333 34.7 0.9 38.3 0.9C45.0333 0.9 50.2667 2.33333 54 5.2C57.8 8 59.7 11.9333 59.7 17ZM21.4 21.3C21.4 24.8333 21.7 27.0333 22.3 27.9C22.9667 28.7 24.7333 29.1 27.6 29.1H33.2C45 29.1 50.9 25.2667 50.9 17.6C50.9 10.6 46.0333 7.1 36.3 7.1C29.5 7.1 25.3 7.53333 23.7 8.4C22.1667 9.26667 21.4 11.5 21.4 15.1V21.3ZM21.4 41.6V52.7C21.4 57.0333 22.1333 59.7 23.6 60.7C25.0667 61.7 29.0667 62.2 35.6 62.2C48.0667 62.2 54.3 57.5333 54.3 48.2C54.3 39.6 48.3 35.3 36.3 35.3H28C24.4 35.3 22.3333 36.1 21.8 37.7C21.5333 38.5 21.4 39.8 21.4 41.6ZM100.138 69.7C93.1383 69.7 87.5383 67.3 83.3383 62.5C79.1383 57.6333 77.0383 51.1333 77.0383 43C77.0383 34.8667 79.1383 28.4 83.3383 23.6C87.6049 18.7333 93.3049 16.3 100.438 16.3C107.705 16.3 113.438 18.6667 117.638 23.4C121.838 28.1333 123.938 34.5667 123.938 42.7C123.938 50.8333 121.772 57.3667 117.438 62.3C113.105 67.2333 107.338 69.7 100.138 69.7ZM100.638 22.9C95.9716 22.9 92.3049 24.5333 89.6383 27.8C86.9716 31.0667 85.5049 35.7 85.2383 41.7C85.2383 41.7 85.2383 42.1333 85.2383 43C85.2383 49.2667 86.5383 54.2 89.1383 57.8C91.8049 61.3333 95.5049 63.1 100.238 63.1C105.105 63.1 108.905 61.3333 111.638 57.8C114.438 54.2 115.838 49.2333 115.838 42.9C115.838 29.5667 110.772 22.9 100.638 22.9ZM159.728 69.7C152.728 69.7 147.128 67.3 142.928 62.5C138.728 57.6333 136.628 51.1333 136.628 43C136.628 34.8667 138.728 28.4 142.928 23.6C147.195 18.7333 152.895 16.3 160.028 16.3C167.295 16.3 173.028 18.6667 177.228 23.4C181.428 28.1333 183.528 34.5667 183.528 42.7C183.528 50.8333 181.361 57.3667 177.028 62.3C172.695 67.2333 166.928 69.7 159.728 69.7ZM160.228 22.9C155.561 22.9 151.895 24.5333 149.228 27.8C146.561 31.0667 145.095 35.7 144.828 41.7C144.828 41.7 144.828 42.1333 144.828 43C144.828 49.2667 146.128 54.2 148.728 57.8C151.395 61.3333 155.095 63.1 159.828 63.1C164.695 63.1 168.495 61.3333 171.228 57.8C174.028 54.2 175.428 49.2333 175.428 42.9C175.428 29.5667 170.361 22.9 160.228 22.9ZM211.918 42.7L229.018 26.7C229.618 26.1667 229.918 25.5667 229.918 24.9C229.918 24.2333 229.485 23.9 228.618 23.9C227.951 23.9 226.985 24.0333 225.718 24.3C224.451 24.5667 223.485 24.7 222.818 24.7C220.485 24.7 219.318 23.6333 219.318 21.5C219.318 19.1667 220.785 18 223.718 18C224.451 18 225.385 18.0667 226.518 18.2C231.118 18.7333 234.618 19 237.018 19C238.351 19 239.485 18.9333 240.418 18.8L244.518 18.2C245.451 18.0667 246.218 18 246.818 18C250.085 18 251.718 19.1333 251.718 21.4C251.718 23.5333 250.585 24.6 248.318 24.6C247.785 24.6 247.018 24.5333 246.018 24.4C245.085 24.2667 244.351 24.2 243.818 24.2C242.151 24.2 240.418 25.0333 238.618 26.7L228.118 36.3C227.385 36.9667 227.018 37.5 227.018 37.9C227.018 38.2333 227.285 38.7333 227.818 39.4L240.618 56C243.885 60.2 246.218 62.3 247.618 62.3C247.951 62.3 248.485 62.2333 249.218 62.1C250.018 61.9 250.651 61.8 251.118 61.8C253.518 61.8 254.718 62.8667 254.718 65C254.718 67.2667 253.185 68.4 250.118 68.4C248.918 68.4 247.118 68.2667 244.718 68C242.385 67.7333 240.618 67.6 239.418 67.6C238.351 67.6 236.785 67.7333 234.718 68C232.718 68.2667 231.218 68.4 230.218 68.4C227.685 68.4 226.418 67.2667 226.418 65C226.418 62.8667 227.618 61.8 230.018 61.8C230.685 61.8 231.218 61.8333 231.618 61.9C232.818 62.2333 233.585 62.4 233.918 62.4C234.518 62.4 234.818 62.1667 234.818 61.7C234.818 61.6333 234.818 61.5333 234.818 61.4C234.751 61.3333 234.718 61.2667 234.718 61.2L233.718 59.8L232.418 57.9L222.418 44.6C221.751 43.7333 221.218 43.3 220.818 43.3C220.551 43.3 220.051 43.6333 219.318 44.3L211.918 50.9V53.2C211.918 56.4 211.951 58.2 212.018 58.6C212.351 60.9333 213.285 62.1 214.818 62.1C215.485 62.1 216.051 62.0667 216.518 62C216.985 61.8667 217.618 61.8 218.418 61.8C220.685 61.8 221.818 62.9 221.818 65.1C221.818 67.3 220.551 68.4 218.018 68.4C216.885 68.4 215.151 68.2667 212.818 68C210.551 67.6667 208.818 67.5 207.618 67.5C206.085 67.5 204.318 67.6333 202.318 67.9C199.785 68.2333 198.085 68.4 197.218 68.4C194.618 68.4 193.318 67.3 193.318 65.1C193.318 62.9 194.585 61.8 197.118 61.8C197.651 61.8 198.285 61.8667 199.018 62C200.085 62.2 200.818 62.3 201.218 62.3C202.818 62.3 203.718 61.0333 203.918 58.5L204.218 54.6V14.2C204.085 10.6 203.851 8.33333 203.518 7.4C203.185 6.4 202.485 5.89999 201.418 5.89999C201.085 5.89999 200.451 5.96666 199.518 6.1C198.585 6.43333 197.651 6.6 196.718 6.6C194.518 6.6 193.418 5.56666 193.418 3.5C193.418 1.23333 194.718 0.099998 197.318 0.099998C198.651 0.099998 199.585 0.133331 200.118 0.199997C201.785 0.399998 202.885 0.499999 203.418 0.499999C203.951 0.499999 204.718 0.433331 205.718 0.299995C206.785 0.099998 207.551 -7.15256e-07 208.018 -7.15256e-07H208.718C210.851 -7.15256e-07 211.918 1.36666 211.918 4.09999V42.7ZM308.832 26.2L308.932 57.3C308.999 60.7 309.899 62.4 311.632 62.4C312.032 62.4 312.865 62.2333 314.132 61.9C314.932 61.7667 315.465 61.7 315.732 61.7C317.932 61.7 319.032 62.8333 319.032 65.1C319.032 67.3 317.665 68.4 314.932 68.4C313.865 68.4 312.165 68.2667 309.832 68C307.499 67.7333 305.699 67.6 304.432 67.6C303.365 67.6 301.765 67.7333 299.632 68C297.499 68.2667 295.932 68.4 294.932 68.4H294.432C291.632 68.4 290.232 67.2 290.232 64.8C290.232 62.7333 291.365 61.7 293.632 61.7C293.765 61.7 293.999 61.7 294.332 61.7C294.732 61.7667 295.032 61.8 295.232 61.8C296.899 62.0667 297.865 62.2 298.132 62.2C299.332 62.2 300.065 61.7 300.332 60.7C300.665 59.6333 300.865 56.9333 300.932 52.6L301.032 45.6L301.332 30.1L301.232 12.3C301.165 10.3 301.065 8.96667 300.932 8.3C300.465 6.76667 299.532 6 298.132 6C297.932 6 297.065 6.13333 295.532 6.39999C294.799 6.53333 294.199 6.6 293.732 6.6C291.465 6.6 290.332 5.53333 290.332 3.4C290.332 1.2 291.665 0.099998 294.332 0.099998C295.065 0.099998 295.699 0.133331 296.232 0.199997L298.632 0.499999C299.699 0.63333 300.599 0.699996 301.332 0.699996C301.999 0.699996 302.999 0.599996 304.332 0.399994C305.665 0.133331 306.665 -7.15256e-07 307.332 -7.15256e-07C308.865 -7.15256e-07 309.632 0.966665 309.632 2.9C309.632 3.56666 309.599 4.06666 309.532 4.4C309.065 9.53333 308.832 16.8 308.832 26.2ZM348.091 69.7C341.091 69.7 335.491 67.3 331.291 62.5C327.091 57.6333 324.991 51.1333 324.991 43C324.991 34.8667 327.091 28.4 331.291 23.6C335.558 18.7333 341.258 16.3 348.391 16.3C355.658 16.3 361.391 18.6667 365.591 23.4C369.791 28.1333 371.891 34.5667 371.891 42.7C371.891 50.8333 369.725 57.3667 365.391 62.3C361.058 67.2333 355.291 69.7 348.091 69.7ZM348.591 22.9C343.925 22.9 340.258 24.5333 337.591 27.8C334.925 31.0667 333.458 35.7 333.191 41.7C333.191 41.7 333.191 42.1333 333.191 43C333.191 49.2667 334.491 54.2 337.091 57.8C339.758 61.3333 343.458 63.1 348.191 63.1C353.058 63.1 356.858 61.3333 359.591 57.8C362.391 54.2 363.791 49.2333 363.791 42.9C363.791 29.5667 358.725 22.9 348.591 22.9ZM404.381 16.3C406.115 16.3 408.081 16.5667 410.281 17.1C410.615 10.5667 414.415 7.29999 421.681 7.29999C424.748 7.29999 427.315 8.1 429.381 9.7C431.448 11.3 432.481 13.3333 432.481 15.8C432.481 17.4 431.948 18.7667 430.881 19.9C429.881 21.0333 428.681 21.6 427.281 21.6C426.215 21.6 425.281 21.2333 424.481 20.5C423.681 19.7667 423.281 18.9 423.281 17.9C423.281 16.8333 424.015 15.7333 425.481 14.6C424.415 13.2667 423.048 12.6 421.381 12.6C417.848 12.6 416.048 14.8 415.981 19.2C421.048 22.6 423.581 27.1667 423.581 32.9C423.581 37.5 421.848 41.3333 418.381 44.4C414.915 47.4667 410.581 49 405.381 49C401.715 49 397.915 48.1333 393.981 46.4C392.915 45.9333 392.015 45.7 391.281 45.7C390.348 45.7 389.515 46.1333 388.781 47C388.048 47.8 387.681 48.7667 387.681 49.9C387.681 53.3667 391.181 55.1 398.181 55.1H398.781C399.315 55.1 399.915 55.0667 400.581 55C401.248 55 401.648 55 401.781 55C408.115 55 413.248 55.6 417.181 56.8C420.848 57.9333 423.748 59.7 425.881 62.1C428.015 64.5 429.081 67.2 429.081 70.2C429.081 75.0667 426.815 78.9 422.281 81.7C417.815 84.5667 411.748 86 404.081 86C396.415 86 390.381 84.6667 385.981 82C381.648 79.3333 379.481 75.6667 379.481 71C379.481 65.6 382.515 61.7667 388.581 59.5C383.181 57.3667 380.481 54.1667 380.481 49.9C380.481 45.2333 383.181 42.0333 388.581 40.3C386.848 37.9667 385.981 35.2333 385.981 32.1C385.981 27.5667 387.715 23.8 391.181 20.8C394.715 17.8 399.115 16.3 404.381 16.3ZM404.681 22.9C401.748 22.9 399.248 23.7667 397.181 25.5C395.115 27.2333 393.981 29.4 393.781 32C393.781 32 393.781 32.2 393.781 32.6C393.781 35.5333 394.781 37.9 396.781 39.7C398.781 41.5 401.381 42.4 404.581 42.4C407.915 42.4 410.615 41.5 412.681 39.7C414.815 37.9 415.881 35.6 415.881 32.8C415.881 29.9333 414.815 27.5667 412.681 25.7C410.548 23.8333 407.881 22.9 404.681 22.9ZM404.781 61.7C399.448 61.7 395.248 62.5 392.181 64.1C389.115 65.7 387.581 67.8667 387.581 70.6C387.581 73.3333 389.081 75.4667 392.081 77C395.081 78.6 399.115 79.4 404.181 79.4C409.515 79.4 413.715 78.6 416.781 77C419.915 75.4 421.481 73.2667 421.481 70.6C421.481 67.8 420.015 65.6333 417.081 64.1C414.148 62.5 410.048 61.7 404.781 61.7Z" fill="black"/>
</svg>
