<svg width="430" height="86" viewBox="0 0 430 86" fill="none" xmlns="http://www.w3.org/2000/svg">
<path d="M59.7 17C59.7 23.8 55.8333 28.6 48.1 31.4C50.9 32.2667 53.2 33.2333 55 34.3C60.4 37.4333 63.1 42.1333 63.1 48.4C63.1 54.5333 60.7333 59.4333 56 63.1C51.2667 66.7 44.9333 68.5 37 68.5C34.1333 68.5 30.5 68.3333 26.1 68C21.7 67.6667 18.4667 67.5 16.4 67.5C14.6 67.5 12.9 67.6 11.3 67.8L6.6 68.4C6.46667 68.4 6.23333 68.4333 5.9 68.5C5.56667 68.5 5.33333 68.5 5.2 68.5C2.33333 68.4333 0.9 67.2333 0.9 64.9C0.9 62.7667 1.93333 61.7 4 61.7C4.53333 61.7 5.43333 61.8 6.7 62C7.56667 62.1333 8.26667 62.2 8.8 62.2C12.2 62.2 13.9 59.7333 13.9 54.8V14.6C13.9 9.6 12.2 7.1 8.8 7.1C8.2 7.1 7.5 7.16666 6.7 7.29999C5.5 7.5 4.6 7.6 4 7.6C1.93333 7.6 0.9 6.53333 0.9 4.4C0.9 2.06667 2.43333 0.9 5.5 0.9H6.8L11.7 1.6C13.1 1.8 15 1.9 17.4 1.9C19.9333 1.9 23.5333 1.7 28.2 1.29999C31.3333 1.03333 34.7 0.9 38.3 0.9C45.0333 0.9 50.2667 2.33333 54 5.2C57.8 8 59.7 11.9333 59.7 17ZM21.4 21.3C21.4 24.8333 21.7 27.0333 22.3 27.9C22.9667 28.7 24.7333 29.1 27.6 29.1H33.2C45 29.1 50.9 25.2667 50.9 17.6C50.9 10.6 46.0333 7.1 36.3 7.1C29.5 7.1 25.3 7.53333 23.7 8.4C22.1667 9.26667 21.4 11.5 21.4 15.1V21.3ZM21.4 41.6V52.7C21.4 57.0333 22.1333 59.7 23.6 60.7C25.0667 61.7 29.0667 62.2 35.6 62.2C48.0667 62.2 54.3 57.5333 54.3 48.2C54.3 39.6 48.3 35.3 36.3 35.3H28C24.4 35.3 22.3333 36.1 21.8 37.7C21.5333 38.5 21.4 39.8 21.4 41.6ZM100.138 69.7C93.1383 69.7 87.5383 67.3 83.3383 62.5C79.1383 57.6333 77.0383 51.1333 77.0383 43C77.0383 34.8667 79.1383 28.4 83.3383 23.6C87.6049 18.7333 93.3049 16.3 100.438 16.3C107.705 16.3 113.438 18.6667 117.638 23.4C121.838 28.1333 123.938 34.5667 123.938 42.7C123.938 50.8333 121.772 57.3667 117.438 62.3C113.105 67.2333 107.338 69.7 100.138 69.7ZM100.638 22.9C95.9716 22.9 92.3049 24.5333 89.6383 27.8C86.9716 31.0667 85.5049 35.7 85.2383 41.7C85.2383 41.7 85.2383 42.1333 85.2383 43C85.2383 49.2667 86.5383 54.2 89.1383 57.8C91.8049 61.3333 95.5049 63.1 100.238 63.1C105.105 63.1 108.905 61.3333 111.638 57.8C114.438 54.2 115.838 49.2333 115.838 42.9C115.838 29.5667 110.772 22.9 100.638 22.9ZM159.728 69.7C152.728 69.7 147.128 67.3 142.928 62.5C138.728 57.6333 136.628 51.1333 136.628 43C136.628 34.8667 138.728 28.4 142.928 23.6C147.195 18.7333 152.895 16.3 160.028 16.3C167.295 16.3 173.028 18.6667 177.228 23.4C181.428 28.1333 183.528 34.5667 183.528 42.7C183.528 50.8333 181.361 57.3667 177.028 62.3C172.695 67.2333 166.928 69.7 159.728 69.7ZM160.228 22.9C155.561 22.9 151.895 24.5333 149.228 27.8C146.561 31.0667 145.095 35.7 144.828 41.7C144.828 41.7 144.828 42.1333 144.828 43C144.828 49.2667 146.128 54.2 148.728 57.8C151.395 61.3333 155.095 63.1 159.828 63.1C164.695 63.1 168.495 61.3333 171.228 57.8C174.028 54.2 175.428 49.2333 175.428 42.9C175.428 29.5667 170.361 22.9 160.228 22.9ZM211.918 42.7L229.018 26.7C229.618 26.1667 229.918 25.5667 229.918 24.9C229.918 24.2333 229.485 23.9 228.618 23.9C227.951 23.9 226.985 24.0333 225.718 24.3C224.451 24.5667 223.485 24.7 222.818 24.7C220.485 24.7 219.318 23.6333 219.318 21.5C219.318 19.1667 220.785 18 223.718 18C224.451 18 225.385 18.0667 226.518 18.2C231.118 18.7333 234.618 19 237.018 19C238.351 19 239.485 18.9333 240.418 18.8L244.518 18.2C245.451 18.0667 246.218 18 246.818 18C250.085 18 251.718 19.1333 251.718 21.4C251.718 23.5333 250.585 24.6 248.318 24.6C247.785 24.6 247.018 24.5333 246.018 24.4C245.085 24.2667 244.351 24.2 243.818 24.2C242.151 24.2 240.418 25.0333 238.618 26.7L228.118 36.3C227.385 36.9667 227.018 37.5 227.018 37.9C227.018 38.2333 227.285 38.7333 227.818 39.4L240.618 56C243.885 60.2 246.218 62.3 247.618 62.3C247.951 62.3 248.485 62.2333 249.218 62.1C250.018 61.9 250.651 61.8 251.118 61.8C253.518 61.8 254.718 62.8667 254.718 65C254.718 67.2667 253.185 68.4 250.118 68.4C248.918 68.4 247.118 68.2667 244.718 68C242.385 67.7333 240.618 67.6 239.418 67.6C238.351 67.6 236.785 67.7333 234.718 68C232.718 68.2667 231.218 68.4 230.218 68.4C227.685 68.4 226.418 67.2667 226.418 65C226.418 62.8667 227.618 61.8 230.018 61.8C230.685 61.8 231.218 61.8333 231.618 61.9C232.818 62.2333 233.585 62.4 233.918 62.4C234.518 62.4 234.818 62.1667 234.818 61.7C234.818 61.6333 234.818 61.5333 234.818 61.4C234.751 61.3333 234.718 61.2667 234.718 61.2L233.718 59.8L232.418 57.9L222.418 44.6C221.751 43.7333 221.218 43.3 220.818 43.3C220.551 43.3 220.051 43.6333 219.318 44.3L211.918 50.9V53.2C211.918 56.4 211.951 58.2 212.018 58.6C212.351 60.9333 213.285 62.1 214.818 62.1C215.485 62.1 216.051 62.0667 216.518 62C216.985 61.8667 217.618 61.8 218.418 61.8C220.685 61.8 221.818 62.9 221.818 65.1C221.818 67.3 220.551 68.4 218.018 68.4C216.885 68.4 215.151 68.2667 212.818 68C210.551 67.6667 208.818 67.5 207.618 67.5C206.085 67.5 204.318 67.6333 202.318 67.9C199.785 68.2333 198.085 68.4 197.218 68.4C194.618 68.4 193.318 67.3 193.318 65.1C193.318 62.9 194.585 61.8 197.118 61.8C197.651 61.8 198.285 61.8667 199.018 62C200.085 62.2 200.818 62.3 201.218 62.3C202.818 62.3 203.718 61.0333 203.918 58.5L204.218 54.6V14.2C204.085 10.6 203.851 8.33333 203.518 7.4C203.185 6.4 202.485 5.89999 201.418 5.89999C201.085 5.89999 200.451 5.96666 199.518 6.1C198.585 6.43333 197.651 6.6 196.718 6.6C194.518 6.6 193.418 5.56666 193.418 3.5C193.418 1.23333 194.718 0.099998 197.318 0.099998C198.651 0.099998 199.585 0.133331 200.118 0.199997C201.785 0.399998 202.885 0.499999 203.418 0.499999C203.951 0.499999 204.718 0.433331 205.718 0.299995C206.785 0.099998 207.551 -7.15256e-07 208.018 -7.15256e-07H208.718C210.851 -7.15256e-07 211.918 1.36666 211.918 4.09999V42.7ZM272.932 69.7C271.199 69.7 269.732 69.1 268.532 67.9C267.332 66.6333 266.732 65.1333 266.732 63.4C266.732 61.6667 267.332 60.2 268.532 59C269.732 57.7333 271.199 57.1 272.932 57.1C274.665 57.1 276.132 57.7333 277.332 59C278.532 60.2 279.132 61.6667 279.132 63.4C279.132 65.1333 278.532 66.6333 277.332 67.9C276.132 69.1 274.665 69.7 272.932 69.7ZM306.176 26.2L306.276 57.3C306.342 60.7 307.242 62.4 308.976 62.4C309.376 62.4 310.209 62.2333 311.476 61.9C312.276 61.7667 312.809 61.7 313.076 61.7C315.276 61.7 316.376 62.8333 316.376 65.1C316.376 67.3 315.009 68.4 312.276 68.4C311.209 68.4 309.509 68.2667 307.176 68C304.842 67.7333 303.042 67.6 301.776 67.6C300.709 67.6 299.109 67.7333 296.976 68C294.842 68.2667 293.276 68.4 292.276 68.4H291.776C288.976 68.4 287.576 67.2 287.576 64.8C287.576 62.7333 288.709 61.7 290.976 61.7C291.109 61.7 291.342 61.7 291.676 61.7C292.076 61.7667 292.376 61.8 292.576 61.8C294.242 62.0667 295.209 62.2 295.476 62.2C296.676 62.2 297.409 61.7 297.676 60.7C298.009 59.6333 298.209 56.9333 298.276 52.6L298.376 45.6L298.676 30.1L298.576 12.3C298.509 10.3 298.409 8.96667 298.276 8.3C297.809 6.76667 296.876 6 295.476 6C295.276 6 294.409 6.13333 292.876 6.39999C292.142 6.53333 291.542 6.6 291.076 6.6C288.809 6.6 287.676 5.53333 287.676 3.4C287.676 1.2 289.009 0.099998 291.676 0.099998C292.409 0.099998 293.042 0.133331 293.576 0.199997L295.976 0.499999C297.042 0.63333 297.942 0.699996 298.676 0.699996C299.342 0.699996 300.342 0.599996 301.676 0.399994C303.009 0.133331 304.009 -7.15256e-07 304.676 -7.15256e-07C306.209 -7.15256e-07 306.976 0.966665 306.976 2.9C306.976 3.56666 306.942 4.06666 306.876 4.4C306.409 9.53333 306.176 16.8 306.176 26.2ZM345.435 69.7C338.435 69.7 332.835 67.3 328.635 62.5C324.435 57.6333 322.335 51.1333 322.335 43C322.335 34.8667 324.435 28.4 328.635 23.6C332.902 18.7333 338.602 16.3 345.735 16.3C353.002 16.3 358.735 18.6667 362.935 23.4C367.135 28.1333 369.235 34.5667 369.235 42.7C369.235 50.8333 367.068 57.3667 362.735 62.3C358.402 67.2333 352.635 69.7 345.435 69.7ZM345.935 22.9C341.268 22.9 337.602 24.5333 334.935 27.8C332.268 31.0667 330.802 35.7 330.535 41.7C330.535 41.7 330.535 42.1333 330.535 43C330.535 49.2667 331.835 54.2 334.435 57.8C337.102 61.3333 340.802 63.1 345.535 63.1C350.402 63.1 354.202 61.3333 356.935 57.8C359.735 54.2 361.135 49.2333 361.135 42.9C361.135 29.5667 356.068 22.9 345.935 22.9ZM401.725 16.3C403.458 16.3 405.425 16.5667 407.625 17.1C407.958 10.5667 411.758 7.29999 419.025 7.29999C422.092 7.29999 424.658 8.1 426.725 9.7C428.792 11.3 429.825 13.3333 429.825 15.8C429.825 17.4 429.292 18.7667 428.225 19.9C427.225 21.0333 426.025 21.6 424.625 21.6C423.558 21.6 422.625 21.2333 421.825 20.5C421.025 19.7667 420.625 18.9 420.625 17.9C420.625 16.8333 421.358 15.7333 422.825 14.6C421.758 13.2667 420.392 12.6 418.725 12.6C415.192 12.6 413.392 14.8 413.325 19.2C418.392 22.6 420.925 27.1667 420.925 32.9C420.925 37.5 419.192 41.3333 415.725 44.4C412.258 47.4667 407.925 49 402.725 49C399.058 49 395.258 48.1333 391.325 46.4C390.258 45.9333 389.358 45.7 388.625 45.7C387.692 45.7 386.858 46.1333 386.125 47C385.392 47.8 385.025 48.7667 385.025 49.9C385.025 53.3667 388.525 55.1 395.525 55.1H396.125C396.658 55.1 397.258 55.0667 397.925 55C398.592 55 398.992 55 399.125 55C405.458 55 410.592 55.6 414.525 56.8C418.192 57.9333 421.092 59.7 423.225 62.1C425.358 64.5 426.425 67.2 426.425 70.2C426.425 75.0667 424.158 78.9 419.625 81.7C415.158 84.5667 409.092 86 401.425 86C393.758 86 387.725 84.6667 383.325 82C378.992 79.3333 376.825 75.6667 376.825 71C376.825 65.6 379.858 61.7667 385.925 59.5C380.525 57.3667 377.825 54.1667 377.825 49.9C377.825 45.2333 380.525 42.0333 385.925 40.3C384.192 37.9667 383.325 35.2333 383.325 32.1C383.325 27.5667 385.058 23.8 388.525 20.8C392.058 17.8 396.458 16.3 401.725 16.3ZM402.025 22.9C399.092 22.9 396.592 23.7667 394.525 25.5C392.458 27.2333 391.325 29.4 391.125 32C391.125 32 391.125 32.2 391.125 32.6C391.125 35.5333 392.125 37.9 394.125 39.7C396.125 41.5 398.725 42.4 401.925 42.4C405.258 42.4 407.958 41.5 410.025 39.7C412.158 37.9 413.225 35.6 413.225 32.8C413.225 29.9333 412.158 27.5667 410.025 25.7C407.892 23.8333 405.225 22.9 402.025 22.9ZM402.125 61.7C396.792 61.7 392.592 62.5 389.525 64.1C386.458 65.7 384.925 67.8667 384.925 70.6C384.925 73.3333 386.425 75.4667 389.425 77C392.425 78.6 396.458 79.4 401.525 79.4C406.858 79.4 411.058 78.6 414.125 77C417.258 75.4 418.825 73.2667 418.825 70.6C418.825 67.8 417.358 65.6333 414.425 64.1C411.492 62.5 407.392 61.7 402.125 61.7Z" fill="black"/>
</svg>
